<svg width="42" height="20" viewBox="0 0 42 20" fill="none" xmlns="http://www.w3.org/2000/svg">
<path fill-rule="evenodd" clip-rule="evenodd" d="M22 0H42V20H22V0ZM26 8H30V12H26V8ZM34 12H30V16H34V12ZM34 8H30V4H34V8ZM34 8V12H38V8H34Z" fill="white"/>
<path fill-rule="evenodd" clip-rule="evenodd" d="M0 0H20V20H0V0ZM4 10C4 6.68628 6.68628 4 10 4C13.3137 4 16 6.68628 16 10C16 13.3137 13.3137 16 10 16C6.68628 16 4 13.3137 4 10ZM10 8C8.89542 8 8 8.89551 8 10C8 11.1045 8.89542 12 10 12C11.1046 12 12 11.1045 12 10C12 8.89551 11.1046 8 10 8Z" fill="white"/>
</svg>
